<svg width="34" height="16" viewBox="0 0 34 16" fill="none" xmlns="http://www.w3.org/2000/svg">
<g clip-path="url(#clip0)">
<path d="M0 1.82674H1.19083L2.14945 5.47901L3.07115 1.99822H4.04882L4.99077 5.47901L5.93272 1.82674H7.13307L5.585 7.07473H4.50253L3.54987 3.52843L2.63174 7.07473H1.54808L0 1.82674Z" fill="#1A1A1A"/>
<path d="M7.70587 4.86573C7.74217 5.23677 7.92063 5.57937 8.20387 5.82178C8.48712 6.06418 8.85318 6.18758 9.22537 6.16612C9.48167 6.17902 9.73642 6.11953 9.96049 5.99443C10.1846 5.86934 10.3689 5.68371 10.4924 5.45877H11.7785C11.5582 5.99407 11.1856 6.45288 10.7068 6.77821C10.267 7.08278 9.74366 7.24376 9.2087 7.23906C8.46935 7.24174 7.75921 6.95061 7.23451 6.42971C6.70981 5.9088 6.41353 5.2008 6.41085 4.46145C6.40816 3.72209 6.69929 3.01195 7.22019 2.48725C7.7411 1.96255 8.4491 1.66627 9.18845 1.66359C9.55263 1.65777 9.91416 1.72626 10.251 1.86487C10.5878 2.00349 10.8928 2.20932 11.1474 2.46978C11.4529 2.78284 11.6818 3.16239 11.816 3.57869C11.9503 3.99499 11.9864 4.43673 11.9214 4.8693L7.70587 4.86573ZM10.702 3.91307C10.6222 3.57828 10.4319 3.28017 10.1618 3.06687C9.89173 2.85358 9.55762 2.73756 9.21346 2.73756C8.8693 2.73756 8.53519 2.85358 8.2651 3.06687C7.99501 3.28017 7.8047 3.57828 7.72492 3.91307H10.702Z" fill="#1A1A1A"/>
<path d="M11.7523 0H13.0051V2.47574C13.22 2.2214 13.4882 2.01737 13.7907 1.87807C14.0932 1.73876 14.4226 1.66758 14.7556 1.66954C15.1125 1.66796 15.466 1.73952 15.7941 1.87982C16.1223 2.02011 16.4183 2.22616 16.6638 2.48525C16.9093 2.74435 17.0991 3.05099 17.2215 3.38627C17.3438 3.72154 17.3962 4.07834 17.3754 4.43465C17.3995 4.79866 17.3478 5.16371 17.2236 5.50672C17.0994 5.84972 16.9053 6.16321 16.6537 6.42736C16.4021 6.69151 16.0984 6.90056 15.7619 7.04131C15.4253 7.18205 15.0632 7.25141 14.6984 7.24501C14.3524 7.26201 14.0081 7.18537 13.7019 7.02317C13.3957 6.86096 13.139 6.61919 12.9586 6.32331V7.07473H11.7523V0ZM16.1215 4.43584C16.121 4.22786 16.0796 4.022 15.9996 3.83002C15.9195 3.63804 15.8025 3.46371 15.6551 3.31697C15.5077 3.17023 15.3328 3.05397 15.1405 2.9748C14.9481 2.89564 14.7421 2.85514 14.5341 2.85561C14.3261 2.85608 14.1203 2.89751 13.9283 2.97754C13.7363 3.05757 13.562 3.17462 13.4152 3.32202C13.2685 3.46943 13.1522 3.64429 13.0731 3.83662C12.9939 4.02896 12.9534 4.235 12.9539 4.44299C12.9427 4.6539 12.9747 4.86487 13.0481 5.06292C13.1214 5.26098 13.2345 5.44193 13.3805 5.59464C13.5264 5.74735 13.702 5.86858 13.8965 5.95089C14.091 6.0332 14.3003 6.07483 14.5115 6.07324C14.7251 6.07721 14.9374 6.03773 15.1353 5.9572C15.3333 5.87667 15.5128 5.75677 15.663 5.60477C15.8133 5.45277 15.931 5.27184 16.0092 5.07295C16.0874 4.87406 16.1244 4.66136 16.1179 4.44775L16.1215 4.43584Z" fill="#1A1A1A"/>
<path d="M17.5302 1.82554H18.7068V2.59005C18.9157 2.29533 19.1944 2.05691 19.5179 1.89609C19.8415 1.73526 20.1998 1.65702 20.5609 1.66835C20.9214 1.67102 21.2775 1.74756 21.6072 1.89324C21.937 2.03892 22.2334 2.25065 22.4781 2.51535C22.7228 2.78005 22.9107 3.09211 23.0301 3.43225C23.1495 3.7724 23.1979 4.13341 23.1724 4.493C23.1884 4.84533 23.1331 5.19727 23.0099 5.52773C22.8866 5.85818 22.6979 6.16035 22.455 6.41611C22.2122 6.67187 21.9202 6.87595 21.5965 7.01614C21.2729 7.15632 20.9243 7.22971 20.5716 7.23191C20.2252 7.25194 19.8795 7.1834 19.567 7.03276C19.2545 6.88212 18.9854 6.65436 18.7853 6.37094V8.90622H17.5302V1.82554ZM21.9196 4.44537C21.924 4.23288 21.8854 4.0217 21.8063 3.82443C21.7272 3.62717 21.6092 3.44788 21.4592 3.29726C21.3093 3.14665 21.1305 3.0278 20.9336 2.94783C20.7367 2.86785 20.5257 2.82839 20.3132 2.83179C20.101 2.82945 19.8906 2.87049 19.6948 2.9524C19.499 3.03432 19.322 3.15536 19.1747 3.30812C18.8828 3.62057 18.7221 4.03325 18.7258 4.46085C18.7264 4.67056 18.7684 4.87809 18.8492 5.0716C18.93 5.2651 19.0482 5.44079 19.1969 5.58863C19.3456 5.73648 19.522 5.85358 19.716 5.93325C19.91 6.01293 20.1178 6.05361 20.3275 6.05299C20.5372 6.05236 20.7447 6.01044 20.9382 5.92961C21.1317 5.84878 21.3074 5.73063 21.4553 5.5819C21.6031 5.43317 21.7202 5.25678 21.7999 5.06279C21.8796 4.86881 21.9202 4.66103 21.9196 4.45132V4.44537Z" fill="#FFA817"/>
<path d="M28.5823 7.07473H27.3296V6.31974C27.1441 6.61737 26.8822 6.85984 26.5712 7.02194C26.2602 7.18404 25.9114 7.25984 25.5612 7.24144C25.1989 7.24632 24.8396 7.1765 24.5055 7.03632C24.1715 6.89614 23.8699 6.68862 23.6196 6.4267C23.3693 6.16479 23.1757 5.8541 23.0508 5.51403C22.9259 5.17395 22.8724 4.81179 22.8937 4.45013C22.8766 4.08992 22.933 3.72999 23.0595 3.39229C23.186 3.05459 23.38 2.74619 23.6296 2.4859C23.8792 2.22562 24.1791 2.01889 24.5112 1.87833C24.8433 1.73777 25.2006 1.66633 25.5612 1.66835C25.9113 1.65059 26.2599 1.72666 26.5707 1.8887C26.8816 2.05074 27.1436 2.29287 27.3296 2.59006V1.82554H28.5823V7.07473ZM24.1465 4.47395C24.1435 4.6844 24.1826 4.89332 24.2617 5.08837C24.3408 5.28341 24.4582 5.46061 24.607 5.60949C24.7558 5.75838 24.9329 5.87591 25.1279 5.95516C25.3229 6.0344 25.5318 6.07374 25.7422 6.07086C26.0316 6.08209 26.318 6.0085 26.5662 5.85913C26.8144 5.70977 27.0135 5.49114 27.1391 5.23013C27.2579 5.00208 27.3262 4.75105 27.3391 4.4942C27.3477 4.24087 27.2976 3.98898 27.1926 3.75826C27.069 3.47574 26.8635 3.23684 26.6025 3.0725C26.3416 2.90817 26.0373 2.82597 25.7291 2.83656C25.5163 2.83546 25.3056 2.87737 25.1094 2.95978C24.9133 3.04218 24.7358 3.16337 24.5876 3.31608C24.4395 3.46879 24.3237 3.64986 24.2473 3.84842C24.1709 4.04698 24.1354 4.25894 24.1429 4.47157L24.1465 4.47395Z" fill="#FFA817"/>
<path d="M30.1018 6.87467L28.1227 1.82674H29.4612L30.7425 5.31587L32.0048 1.82674H33.3433L30.5782 8.91218H29.242L30.1018 6.87467Z" fill="#FFA817"/>
<path fill-rule="evenodd" clip-rule="evenodd" d="M1.34802 9.68741H16.4335L14.6746 15.9988H1.34802V9.68741Z" fill="#EC1C24"/>
<path fill-rule="evenodd" clip-rule="evenodd" d="M32.63 9.68741L30.8496 15.9988H14.6746L16.4335 9.68741H32.63Z" fill="#2E3191"/>
<path d="M18.696 12.6847C18.7277 12.5099 18.7408 12.3323 18.7353 12.1548C18.7327 12.0302 18.7089 11.907 18.6651 11.7904C18.6331 11.7019 18.58 11.6226 18.5103 11.5594C18.4508 11.5056 18.3806 11.465 18.3043 11.4403C18.227 11.4173 18.1467 11.4064 18.0661 11.4082C17.9117 11.4066 17.7588 11.4391 17.6183 11.5034C17.4636 11.5754 17.3245 11.677 17.2087 11.8023C17.0648 11.9578 16.9444 12.1335 16.8514 12.3239C16.7315 12.5684 16.6369 12.8246 16.5692 13.0884C16.4955 13.3396 16.4484 13.5979 16.4287 13.8589C16.4132 14.0394 16.4338 14.2212 16.4894 14.3936C16.5285 14.5203 16.6101 14.6296 16.7205 14.7032C16.8364 14.7728 16.9699 14.8075 17.1051 14.8032C17.2349 14.8052 17.3641 14.7855 17.4873 14.7449C17.6194 14.6982 17.7408 14.6258 17.8446 14.5317C17.9785 14.4081 18.0922 14.2642 18.1816 14.1054C18.3066 13.8855 18.4095 13.6537 18.4888 13.4135H17.9506C17.9115 13.5355 17.8563 13.6516 17.7863 13.7589C17.7307 13.846 17.6592 13.922 17.5755 13.9827C17.5086 14.0326 17.4279 14.0605 17.3445 14.0625C17.297 14.065 17.2497 14.0554 17.207 14.0346C17.1643 14.0138 17.1276 13.9824 17.1003 13.9434C17.0376 13.8449 17.0076 13.729 17.0146 13.6124C17.0193 13.4337 17.0474 13.2563 17.098 13.0849C17.1444 12.9029 17.2119 12.7271 17.2992 12.5609C17.3629 12.4358 17.4517 12.3251 17.56 12.2358C17.6442 12.1625 17.751 12.1205 17.8625 12.1167C17.9255 12.1133 17.9879 12.1309 18.0399 12.1667C18.0928 12.2102 18.1286 12.2709 18.1411 12.3382C18.1586 12.4471 18.1586 12.558 18.1411 12.6669L18.696 12.6847ZM18.7615 13.0956C18.6921 13.3471 18.6501 13.6054 18.6365 13.866C18.6238 14.0475 18.6493 14.2297 18.7115 14.4007C18.7591 14.5294 18.8484 14.6384 18.9652 14.7103C19.0892 14.7802 19.2301 14.8148 19.3724 14.8104C19.5315 14.8113 19.6889 14.7771 19.8333 14.7103C19.9895 14.6362 20.1289 14.5308 20.2429 14.4007C20.3841 14.2407 20.5005 14.0605 20.5883 13.866C20.7035 13.619 20.7932 13.3608 20.8562 13.0956C20.9244 12.846 20.9644 12.5895 20.9753 12.3311C20.9856 12.153 20.958 11.9748 20.8943 11.8083C20.8458 11.6833 20.757 11.5781 20.6419 11.5094C20.5207 11.4413 20.383 11.4083 20.2441 11.4141C20.0893 11.4124 19.936 11.445 19.7952 11.5094C19.6419 11.5814 19.5043 11.683 19.3903 11.8083C19.25 11.9645 19.1336 12.1407 19.045 12.3311C18.9291 12.5764 18.8374 12.8325 18.7711 13.0956H18.7615ZM19.2998 13.0956C19.3439 12.9138 19.4095 12.7379 19.4951 12.5716C19.5573 12.4468 19.6444 12.3362 19.7511 12.2465C19.8353 12.1733 19.9421 12.1312 20.0536 12.1274C20.1009 12.1257 20.148 12.1356 20.1906 12.1564C20.2331 12.1772 20.2699 12.2081 20.2977 12.2465C20.3612 12.3426 20.3925 12.4565 20.387 12.5716C20.387 12.7487 20.363 12.9249 20.3156 13.0956C20.2719 13.2785 20.2068 13.4555 20.1215 13.6231C20.0593 13.7502 19.9713 13.863 19.863 13.9542C19.779 14.0283 19.6715 14.0705 19.5594 14.0732C19.5115 14.0755 19.4637 14.0658 19.4205 14.045C19.3773 14.0242 19.3399 13.993 19.3117 13.9542C19.2482 13.8558 19.217 13.7401 19.2224 13.6231C19.2243 13.4447 19.2499 13.2672 19.2986 13.0956H19.2998ZM23.2295 14.6901H23.7535C23.8369 14.3328 23.9202 13.9661 24.0024 13.6076C24.0846 13.2492 24.1667 12.8931 24.2489 12.5359C24.2914 12.3664 24.3138 12.1926 24.3156 12.0179C24.3185 11.9027 24.297 11.7883 24.2525 11.6821C24.2197 11.6071 24.1649 11.544 24.0953 11.501C24.0283 11.4639 23.9527 11.4454 23.8762 11.4475C23.7255 11.4513 23.5805 11.5054 23.4641 11.6011C23.3144 11.7216 23.1881 11.8685 23.0914 12.0345C23.095 11.9297 23.0829 11.825 23.0557 11.7237C23.0374 11.6457 22.9959 11.5751 22.9366 11.5213C22.8681 11.4699 22.784 11.4438 22.6984 11.4475C22.6212 11.4489 22.5449 11.4647 22.4734 11.4939C22.3972 11.5245 22.3252 11.5645 22.259 11.613C22.1916 11.6639 22.129 11.7209 22.0721 11.7833C22.0166 11.8437 21.9668 11.9091 21.9232 11.9786V11.9786L22.0423 11.526H21.5433C21.4159 12.0452 21.2849 12.5633 21.1563 13.092C21.0277 13.6207 20.8931 14.153 20.7609 14.6865H21.2873L21.4981 13.8196C21.5687 13.5322 21.6386 13.2464 21.7077 12.9622C21.7345 12.8516 21.7712 12.7436 21.8172 12.6395C21.8537 12.5566 21.9009 12.479 21.9577 12.4085C22.002 12.354 22.0562 12.3084 22.1173 12.2739C22.1678 12.2452 22.2248 12.23 22.2828 12.2298C22.3188 12.2291 22.3544 12.2373 22.3864 12.2536C22.4211 12.274 22.4489 12.3043 22.4662 12.3406C22.4889 12.3924 22.5003 12.4484 22.4996 12.5049C22.4991 12.5937 22.4875 12.6821 22.465 12.7681L22.234 13.7208L22.003 14.6817H22.5269L22.733 13.8148L22.9354 12.9574C22.9614 12.8467 22.9976 12.7387 23.0438 12.6347C23.079 12.5518 23.1255 12.474 23.1819 12.4037C23.2248 12.3488 23.2783 12.3031 23.3391 12.2691C23.3879 12.2405 23.4433 12.2253 23.4998 12.2251C23.5374 12.2241 23.5746 12.2323 23.6082 12.2489C23.6439 12.2687 23.6726 12.2991 23.6904 12.3358C23.7141 12.3873 23.7259 12.4435 23.7249 12.5001C23.726 12.5889 23.7152 12.6774 23.6928 12.7633C23.6134 13.0809 23.5392 13.3984 23.4701 13.716C23.401 14.0335 23.3264 14.3539 23.2462 14.677L23.2295 14.6901ZM24.9753 13.1134C25.0044 12.9773 25.0471 12.8445 25.1027 12.7169C25.1473 12.6152 25.2045 12.5196 25.273 12.4323C25.3266 12.3641 25.3919 12.306 25.4659 12.2608C25.526 12.2256 25.594 12.2064 25.6636 12.2048C25.7261 12.204 25.7872 12.2236 25.8375 12.2608C25.8922 12.3059 25.9334 12.3653 25.9565 12.4323C25.988 12.5238 26.0034 12.6201 26.0018 12.7169C25.9993 12.8504 25.983 12.9833 25.953 13.1134C25.9241 13.2498 25.8818 13.383 25.8267 13.5112C25.7828 13.6145 25.7252 13.7115 25.6553 13.7993C25.6014 13.8688 25.5352 13.9278 25.46 13.9732C25.3993 14.0103 25.3298 14.0304 25.2587 14.0316C25.1958 14.0325 25.1345 14.0119 25.0849 13.9732C25.0294 13.9278 24.9881 13.8675 24.9658 13.7993C24.9359 13.7063 24.9214 13.6089 24.9229 13.5112C24.925 13.3771 24.9422 13.2437 24.9741 13.1134H24.9753ZM23.8369 15.8928H24.3668L24.543 15.1093C24.6026 14.8489 24.6609 14.5893 24.7181 14.3305C24.7278 14.4194 24.7558 14.5053 24.8002 14.5829C24.8415 14.6527 24.9002 14.7105 24.9705 14.7508C25.0489 14.7913 25.136 14.8117 25.2242 14.8104C25.3595 14.8075 25.4913 14.7662 25.6041 14.6913C25.7425 14.598 25.8634 14.4811 25.9613 14.3459C26.0848 14.1786 26.1873 13.9966 26.2662 13.8041C26.3629 13.5787 26.4367 13.3441 26.4865 13.1039C26.5414 12.8664 26.5706 12.6236 26.5734 12.3799C26.5757 12.2049 26.5475 12.0308 26.49 11.8654C26.4472 11.7439 26.3698 11.6375 26.2673 11.5594C26.1877 11.5059 26.0965 11.4722 26.0012 11.461C25.906 11.4499 25.8094 11.4615 25.7196 11.4951C25.6353 11.5302 25.5588 11.5816 25.4945 11.6463C25.396 11.7417 25.3081 11.8475 25.2325 11.9619V11.9619C25.2647 11.8202 25.2968 11.6797 25.3278 11.5391H24.8288L24.3382 13.6922L23.8333 15.9012L23.8369 15.8928ZM26.4329 14.6901H26.9568C27.0057 14.4591 27.0545 14.2292 27.1033 13.9982L27.2486 13.3063C27.2843 13.1258 27.3406 12.95 27.4165 12.7824C27.4707 12.6559 27.552 12.5429 27.6547 12.4513C27.7428 12.3754 27.8551 12.3332 27.9714 12.3322C28.018 12.3324 28.0641 12.3417 28.1072 12.3596C28.1526 12.3765 28.1958 12.3989 28.2358 12.4263C28.3025 12.1048 28.368 11.7845 28.4347 11.4653C28.4062 11.4534 28.3761 11.4458 28.3453 11.4427C28.3148 11.4405 28.2842 11.4405 28.2536 11.4427C28.1841 11.4423 28.1152 11.4561 28.0512 11.4832C27.9828 11.5137 27.9203 11.556 27.8666 11.6082C27.7991 11.6744 27.7378 11.7465 27.6832 11.8238C27.6201 11.9119 27.5534 12.0143 27.4808 12.1334C27.5245 11.9293 27.5673 11.7261 27.6094 11.5237H27.1128C27.0009 12.0421 26.8886 12.5637 26.7758 13.0884C26.6631 13.6132 26.548 14.1447 26.4305 14.6829L26.4329 14.6901ZM29.5933 13.3968C29.5743 13.4951 29.5444 13.591 29.504 13.6826C29.4694 13.7619 29.4255 13.8366 29.373 13.9053C29.3267 13.9646 29.2731 14.0179 29.2135 14.0637C29.1618 14.1032 29.1043 14.1345 29.0432 14.1566C28.9906 14.1764 28.935 14.1869 28.8788 14.1876C28.8202 14.1892 28.7629 14.1703 28.7169 14.134C28.6718 14.095 28.6419 14.0415 28.6323 13.9827C28.6189 13.9037 28.6214 13.8227 28.6395 13.7446C28.6533 13.6641 28.6794 13.5862 28.7169 13.5136C28.7447 13.4607 28.7857 13.416 28.836 13.3837C28.8863 13.3537 28.9422 13.3342 29.0003 13.3266L29.3123 13.273C29.3677 13.2647 29.4223 13.2515 29.4754 13.2337C29.5373 13.2115 29.5949 13.1789 29.6457 13.1372C29.6279 13.2254 29.6124 13.3111 29.5945 13.398L29.5933 13.3968ZM28.9408 12.4847C28.9727 12.3963 29.0126 12.311 29.0598 12.2298C29.0904 12.1756 29.1308 12.1275 29.1789 12.0881C29.2138 12.0601 29.2545 12.0402 29.298 12.0298C29.347 12.0202 29.3969 12.0162 29.4469 12.0179C29.526 12.0139 29.6051 12.0282 29.6779 12.0595C29.7026 12.0708 29.7245 12.0872 29.7422 12.1078C29.7599 12.1284 29.7729 12.1525 29.7803 12.1786C29.797 12.2471 29.797 12.3186 29.7803 12.387C29.7694 12.4531 29.7502 12.5175 29.7231 12.5787C29.7047 12.6193 29.6744 12.6534 29.6362 12.6764C29.5951 12.698 29.5502 12.7113 29.504 12.7157L28.9372 12.7919C28.8701 12.8003 28.804 12.8146 28.7395 12.8348C28.5885 12.8844 28.4555 12.9777 28.3573 13.1027C28.2934 13.1856 28.2405 13.2765 28.2001 13.373C28.1473 13.4997 28.1074 13.6314 28.081 13.766C28.0457 13.9222 28.0301 14.0822 28.0345 14.2423C28.0359 14.3542 28.0632 14.4643 28.1143 14.5639C28.1559 14.643 28.2213 14.7072 28.3013 14.7472C28.3869 14.7874 28.4807 14.807 28.5752 14.8044C28.6412 14.8046 28.7071 14.7979 28.7717 14.7842C28.8478 14.7679 28.9217 14.7427 28.992 14.7091C29.0718 14.6714 29.1466 14.6238 29.2147 14.5674C29.2919 14.5022 29.3599 14.4269 29.4171 14.3436C29.4076 14.3995 29.4004 14.4626 29.3957 14.5138C29.3909 14.565 29.3885 14.6329 29.3849 14.6841H29.9125C29.9081 14.5916 29.9109 14.4988 29.9208 14.4067C29.9327 14.3007 29.9506 14.1756 29.9756 14.0375C30.028 13.7731 30.0796 13.5104 30.1304 13.2492L30.2828 12.4668C30.3064 12.3562 30.3211 12.2439 30.3269 12.131C30.3329 12.0335 30.3249 11.9356 30.3031 11.8404C30.2844 11.7523 30.2426 11.6707 30.1819 11.6041C30.1212 11.5376 30.0438 11.4884 29.9577 11.4617C29.8399 11.4228 29.7162 11.4047 29.5921 11.4082C29.5064 11.4065 29.4207 11.4128 29.3361 11.4272C29.1463 11.4553 28.9714 11.5463 28.8395 11.6856C28.7523 11.7779 28.6792 11.8826 28.6228 11.9964C28.5474 12.1488 28.4876 12.3084 28.4442 12.4728L28.9408 12.4847Z" fill="white"/>
<path d="M7.74517 11.2212H8.63114C8.67195 11.2208 8.71243 11.2284 8.75023 11.2438C8.78932 11.2615 8.82183 11.2911 8.84311 11.3284C8.87028 11.3783 8.88345 11.4347 8.88122 11.4915C8.87782 11.5803 8.86179 11.6681 8.83358 11.7523C8.80427 11.8425 8.76429 11.9288 8.7145 12.0095C8.67899 12.0714 8.63534 12.1283 8.5847 12.1786C8.54494 12.2169 8.49906 12.2483 8.44895 12.2715C8.40927 12.2896 8.36631 12.2993 8.32272 12.3001H7.40102C7.51137 11.9381 7.62251 11.5769 7.73445 11.2164L7.74517 11.2212ZM6.90325 11.6975H1.34802V12.2179H6.7413L6.65198 12.5073H1.34802V13.0313H6.48646L6.39714 13.3206H1.34802V13.841H6.23995L6.13278 14.1864H1.34802V14.7091H6.66865L7.18905 13.1241H8.02263C8.07126 13.1222 8.11949 13.1337 8.16196 13.1575C8.18275 13.1709 8.20063 13.1884 8.21454 13.2088C8.22845 13.2293 8.2381 13.2523 8.24293 13.2766C8.25801 13.3528 8.25801 13.4313 8.24293 13.5076C8.22471 13.6341 8.19562 13.7588 8.156 13.8803C8.12147 13.9994 8.0917 14.0899 8.06669 14.1733C8.04168 14.2566 8.02382 14.3293 8.00953 14.39C7.99539 14.4456 7.98504 14.5021 7.97857 14.5591C7.97239 14.6093 7.96961 14.6598 7.97023 14.7103H8.73475C8.72115 14.6417 8.71794 14.5715 8.72522 14.5019C8.73481 14.4115 8.74912 14.3217 8.76809 14.2328C8.78714 14.1411 8.80977 14.053 8.8312 13.9696C8.85264 13.8863 8.87288 13.8196 8.88955 13.7648C8.91575 13.6791 8.94195 13.5886 8.96696 13.4897C8.99196 13.3909 9.01102 13.2956 9.0265 13.1992C9.0416 13.1103 9.04877 13.0202 9.04793 12.93C9.04949 12.8587 9.03652 12.7878 9.00983 12.7216C8.99924 12.6958 8.98307 12.6725 8.96249 12.6536C8.94191 12.6347 8.91742 12.6205 8.89074 12.6121C8.89123 12.6081 8.89123 12.6041 8.89074 12.6002C9.06841 12.5091 9.22064 12.3753 9.33373 12.2108C9.46623 12.0117 9.56669 11.7931 9.63144 11.563C9.66078 11.468 9.68424 11.3714 9.7017 11.2736C9.72077 11.1711 9.72915 11.067 9.72671 10.9628C9.72854 10.8681 9.71237 10.774 9.67907 10.6853C9.64066 10.6003 9.57651 10.5295 9.49569 10.4829C9.39363 10.426 9.27774 10.3988 9.16106 10.4043H7.30218L6.90206 11.6987L6.90325 11.6975ZM11.0021 13.7398C10.9271 13.8655 10.8255 13.9732 10.7044 14.0554C10.5983 14.1251 10.4741 14.1623 10.3471 14.1625C10.2611 14.167 10.1761 14.1424 10.1057 14.0927C10.0353 14.043 9.98361 13.9712 9.95892 13.8887C9.93171 13.8078 9.91921 13.7227 9.922 13.6374C9.9248 13.5518 9.93882 13.4669 9.96368 13.3849V13.373H11.8273C11.8381 13.3409 11.8464 13.3087 11.8571 13.2766C11.9676 12.9416 12.0274 12.592 12.0345 12.2393C12.0477 12.0025 11.9726 11.7691 11.8238 11.5844C11.7425 11.504 11.645 11.4418 11.5378 11.402C11.4306 11.3622 11.3162 11.3456 11.2021 11.3534C11.0137 11.3522 10.8268 11.3861 10.6508 11.4534C10.4677 11.5241 10.2996 11.6287 10.1554 11.7618C9.98739 11.9191 9.84478 12.1015 9.73266 12.3025C9.59201 12.5508 9.48053 12.8145 9.40042 13.0884C9.31719 13.3429 9.26716 13.6071 9.25157 13.8744C9.23893 14.0604 9.27162 14.2467 9.34683 14.4174C9.41051 14.5531 9.51843 14.6631 9.65288 14.7294C9.80668 14.801 9.9751 14.8357 10.1447 14.8306C10.3381 14.8286 10.5292 14.7881 10.7068 14.7115C10.9006 14.6272 11.0762 14.5058 11.2236 14.3543C11.4045 14.1695 11.5573 13.9593 11.6773 13.7303L11.0021 13.7398ZM10.1602 12.7443V12.7324C10.1726 12.6962 10.1881 12.6611 10.2066 12.6276C10.2424 12.5644 10.2822 12.5035 10.3257 12.4454C10.3732 12.3733 10.4278 12.3063 10.4888 12.2453C10.557 12.1794 10.6349 12.1243 10.7199 12.0822C10.8049 12.0381 10.8992 12.0153 10.9949 12.0155C11.073 12.0121 11.1504 12.0316 11.2176 12.0714C11.2691 12.1074 11.3102 12.1563 11.3367 12.2132C11.3652 12.2719 11.3833 12.3352 11.3903 12.4001C11.3972 12.4626 11.3972 12.5257 11.3903 12.5883C11.3869 12.6363 11.3781 12.6839 11.3641 12.73V12.7419L10.1602 12.7443ZM12.7895 13.1015C12.8306 12.9601 12.8878 12.8239 12.9598 12.6954C13.0186 12.5882 13.0919 12.4896 13.1777 12.4025C13.2466 12.3304 13.3271 12.2704 13.4159 12.2251C13.4924 12.1877 13.5761 12.1678 13.6612 12.1667C13.7349 12.1649 13.8075 12.1852 13.8696 12.2251C13.9318 12.2691 13.9791 12.331 14.0054 12.4025C14.0394 12.4962 14.054 12.5959 14.0482 12.6954C14.0413 12.8334 14.0164 12.9699 13.9744 13.1015C13.9341 13.243 13.8773 13.3793 13.8053 13.5076C13.7459 13.6151 13.6726 13.7144 13.5874 13.8029C13.5181 13.8745 13.4377 13.9345 13.3492 13.9804C13.2728 14.0181 13.1891 14.0384 13.1039 14.0399C13.0293 14.0412 12.956 14.0205 12.8931 13.9804C12.8304 13.9367 12.7825 13.8747 12.7562 13.8029C12.7227 13.7082 12.7085 13.6078 12.7145 13.5076C12.7216 13.3696 12.7464 13.2332 12.7883 13.1015H12.7895ZM13.504 14.7056H14.1185L14.7734 12.5168C14.991 11.7904 15.2077 11.0628 15.4236 10.334H14.7925L14.5615 11.1021C14.4841 11.3581 14.4079 11.6154 14.3305 11.8702H14.3233C14.314 11.78 14.2829 11.6934 14.2328 11.6177C14.1823 11.5449 14.1132 11.487 14.0328 11.4498C13.9371 11.408 13.8334 11.3877 13.7291 11.3903C13.5681 11.3919 13.4099 11.4328 13.2682 11.5094C13.1023 11.5994 12.9523 11.7161 12.8241 11.8547C12.6709 12.0204 12.5389 12.2044 12.4311 12.4025C12.3062 12.6292 12.2064 12.8687 12.1334 13.117C12.0561 13.358 12.0089 13.6075 11.9929 13.8601C11.9792 14.0408 12.0027 14.2223 12.0619 14.3936C12.1068 14.5245 12.1928 14.6373 12.3072 14.7151C12.4236 14.7886 12.559 14.8263 12.6966 14.8235C12.7964 14.8239 12.8955 14.809 12.9908 14.7794C13.1012 14.7437 13.2048 14.6894 13.2968 14.6186C13.4156 14.528 13.522 14.4223 13.6136 14.3043H13.6207L13.5016 14.7115L13.504 14.7056Z" fill="white"/>
</g>
<defs>
<clipPath id="clip0">
<rect width="33.3433" height="16" fill="white"/>
</clipPath>
</defs>
</svg>
